<svg width="150" height="160" viewBox="0 0 104 157" fill="none" xmlns="http://www.w3.org/2000/svg">
    <path d="M6.09993 113.316V131.565C5.42027 131.276 4.92752 130.613 4.92752 129.815V115.049C4.92752 114.267 5.40328 113.605 6.09993 113.316ZM4.92752 56.1397V41.3742C4.92752 40.5926 5.42027 39.9129 6.09993 39.624V57.8898C5.40328 57.601 4.92752 56.9213 4.92752 56.1397ZM13.0834 11.2144C38.0438 2.88854 63.7349 2.88854 89.409 11.2483C90.6833 11.6561 91.5329 12.8455 91.5329 14.1879V37.0413C91.5329 37.3812 91.6009 37.704 91.7368 38.0099V59.521C91.6009 59.8269 91.5329 60.1497 91.5329 60.4895V110.274C91.5159 110.41 91.4989 110.529 91.4989 110.665V134.13C91.4989 134.266 91.5159 134.402 91.5329 134.521V143.867C91.5329 145.311 90.5644 146.551 89.1711 146.874C64.2107 152.872 38.7065 152.872 13.3553 146.857C11.962 146.534 10.9765 145.294 10.9765 143.85V134.521C10.9935 134.385 11.0105 134.266 11.0105 134.13V110.682C11.0105 110.546 10.9935 110.41 10.9765 110.291V60.8633C10.9935 60.7274 11.0105 60.6085 11.0105 60.4725V36.9904C11.0105 36.8544 10.9935 36.7185 10.9765 36.5996V14.1539C10.9935 12.8115 11.826 11.6221 13.0834 11.2144ZM98.3125 41.3742V56.1397C98.3125 57.0912 97.5989 57.8898 96.6643 58.0088V39.5051C97.5989 39.641 98.3125 40.4226 98.3125 41.3742ZM98.3125 115.066V129.832C98.3125 130.868 97.4629 131.718 96.4434 131.718V113.18C97.4799 113.18 98.3125 114.03 98.3125 115.066ZM0 115.066V129.832C0 133.332 2.65066 136.237 6.06594 136.611V143.884C6.06594 147.622 8.59767 150.833 12.2338 151.7C38.3497 157.884 64.6185 157.884 90.3435 151.717C93.9627 150.85 96.4774 147.639 96.4774 143.918V136.662C100.216 136.628 103.24 133.587 103.24 129.849V115.083C103.24 111.345 100.216 108.286 96.4774 108.269V62.9533C100.216 62.9193 103.24 59.8778 103.24 56.1397V41.3742C103.24 37.636 100.216 34.5776 96.4774 34.5606V14.1709C96.4774 10.6876 94.2515 7.61217 90.9552 6.54171C77.7189 2.24287 64.3976 0.0339829 51.3481 0C51.2122 0 51.0933 0 50.9573 0C37.789 0 24.5187 2.1919 11.5372 6.52471C8.25784 7.61217 6.06594 10.6706 6.06594 14.1369V34.6116C2.66766 34.9854 0 37.8909 0 41.3912V56.1567C0 59.657 2.65066 62.5625 6.06594 62.9363V108.303C2.65066 108.66 0 111.566 0 115.066Z" fill="#9EB4C1" />
    <path d="M18.5377 20.7975C37.772 15.1564 58.8414 15.2073 82.9183 20.9674C83.2921 21.0524 83.496 21.3073 83.581 21.4432C83.6659 21.5791 83.8019 21.868 83.6999 22.2418L78.8064 42.3597C78.6874 42.8354 78.2627 43.1583 77.7699 43.1583C77.6849 43.1583 77.6 43.1413 77.515 43.1243C59.0113 38.6385 40.9495 38.6215 23.8561 43.0393C23.4653 43.1413 23.1764 43.0053 23.0235 42.9204C22.8875 42.8354 22.6327 42.6315 22.5477 42.2577L17.8071 22.0379C17.6882 21.5112 17.994 20.9674 18.5377 20.7975ZM17.7561 43.4131C18.1299 44.9933 19.0985 46.3187 20.4748 47.1682C21.8681 48.0178 23.4992 48.2557 25.0964 47.8479C41.4082 43.634 58.6545 43.668 76.3596 47.9498C79.571 48.7314 82.8164 46.7604 83.581 43.5491L88.4745 23.4312C88.8483 21.868 88.6104 20.2708 87.7609 18.8945C86.9283 17.5182 85.603 16.5666 84.0398 16.1928C71.5001 13.2023 59.725 11.7071 48.5616 11.7071C37.5342 11.7071 27.1014 13.1684 17.1105 16.0909C14.069 16.9914 12.2509 20.1009 12.9815 23.1933L17.7561 43.4131Z" fill="#9EB4C1" />
    <path d="M22.4459 103.546C22.6498 103.393 23.2784 103.172 24.077 103.308C41.0515 106.23 58.9775 106.213 77.3622 103.257C78.1268 103.138 78.7555 103.359 78.9594 103.512L83.6151 116.238C83.4961 116.289 83.3432 116.34 83.1393 116.374C58.9095 120.231 37.7212 120.265 18.3509 116.476C18.198 116.442 18.0621 116.408 17.9771 116.357L22.4459 103.546ZM17.3654 121.302C37.3134 125.21 59.0794 125.176 83.8699 121.234C85.739 120.928 87.2682 119.977 88.0838 118.617C88.7295 117.53 88.8484 116.289 88.4066 115.117L83.5131 101.694C82.7655 99.6208 80.4207 98.2784 77.787 98.2784C77.3792 98.2784 76.9714 98.3124 76.5466 98.3804C58.7056 101.252 41.3234 101.286 24.8926 98.4484C21.7322 97.9046 18.6908 99.3319 17.8242 101.796L13.0836 115.287C12.6758 116.425 12.7947 117.632 13.4064 118.702C14.154 120.01 15.5983 120.962 17.3654 121.302Z" fill="#9EB4C1" /><path d="M80.4886 87.472C80.4886 89.3411 78.9594 90.8703 77.0903 90.8703H23.8052C21.9361 90.8703 20.4069 89.3411 20.4069 87.472V60.0308C20.4069 58.1618 21.9361 56.6325 23.8052 56.6325H77.0733C78.9424 56.6325 80.4716 58.1618 80.4716 60.0308V87.472H80.4886ZM77.0733 51.688H23.8052C19.2175 51.688 15.4794 55.4261 15.4794 60.0138V87.472C15.4794 92.0597 19.2175 95.7978 23.8052 95.7978H77.0733C81.661 95.7978 85.3992 92.0597 85.3992 87.472V60.0308C85.4161 55.4261 81.678 51.688 77.0733 51.688Z" fill="#9EB4C1" />
    <path d="M64.9923 76.9203C64.9923 77.498 64.5166 77.9737 63.9388 77.9737H37.891C37.3133 77.9737 36.8375 77.498 36.8375 76.9203V70.3446C36.8375 69.7669 37.3133 69.2911 37.891 69.2911H63.9388C64.5166 69.2911 64.9923 69.7669 64.9923 70.3446V76.9203ZM63.9388 64.3636H37.891C34.5946 64.3636 31.91 67.0482 31.91 70.3446V76.9203C31.91 80.2166 34.5946 82.9013 37.891 82.9013H63.9388C67.2352 82.9013 69.9198 80.2166 69.9198 76.9203V70.3446C69.9198 67.0482 67.2352 64.3636 63.9388 64.3636Z" fill="#9EB4C1" />
    <path d="M85.0591 137.07C84.8382 137.07 84.6174 137.104 84.4135 137.155L69.8688 141.148C68.5604 141.505 67.7788 142.864 68.1526 144.172C68.5095 145.481 69.8688 146.262 71.1771 145.906L85.7218 141.913C87.0301 141.556 87.8117 140.196 87.4549 138.888C87.1321 137.784 86.1466 137.07 85.0591 137.07Z" fill="#9EB4C1" />
    <path d="M31.7402 141.148L17.1955 137.155C16.9746 137.087 16.7537 137.07 16.5499 137.07C15.4624 137.07 14.4769 137.784 14.1711 138.888C13.8142 140.196 14.5788 141.556 15.9042 141.913L30.4489 145.906C31.7572 146.262 33.1165 145.498 33.4733 144.172C33.8302 142.864 33.0485 141.505 31.7402 141.148Z" fill="#9EB4C1" />
</svg>