<svg width="280" height="260" viewBox="0 0 322 219" fill="none" xmlns="http://www.w3.org/2000/svg">
    <rect width="322" height="219" rx="8" fill="white" fill-opacity="0.14" />
    <path d="M192.1 144.316V162.565C191.42 162.276 190.928 161.613 190.928 160.815V146.049C190.928 145.267 191.403 144.605 192.1 144.316ZM190.928 87.1397V72.3742C190.928 71.5926 191.42 70.9129 192.1 70.624V88.8898C191.403 88.601 190.928 87.9213 190.928 87.1397ZM199.083 42.2144C224.044 33.8885 249.735 33.8885 275.409 42.2483C276.683 42.6561 277.533 43.8455 277.533 45.1879V68.0413C277.533 68.3812 277.601 68.704 277.737 69.0099V90.521C277.601 90.8269 277.533 91.1497 277.533 91.4895V141.274C277.516 141.41 277.499 141.529 277.499 141.665V165.13C277.499 165.266 277.516 165.402 277.533 165.521V174.867C277.533 176.311 276.564 177.551 275.171 177.874C250.211 183.872 224.707 183.872 199.355 177.857C197.962 177.534 196.976 176.294 196.976 174.85V165.521C196.993 165.385 197.01 165.266 197.01 165.13V141.682C197.01 141.546 196.993 141.41 196.976 141.291V91.8633C196.993 91.7274 197.01 91.6085 197.01 91.4725V67.9904C197.01 67.8544 196.993 67.7185 196.976 67.5996V45.1539C196.993 43.8115 197.826 42.6221 199.083 42.2144ZM284.312 72.3742V87.1397C284.312 88.0912 283.599 88.8898 282.664 89.0088V70.5051C283.599 70.641 284.312 71.4226 284.312 72.3742ZM284.312 146.066V160.832C284.312 161.868 283.463 162.718 282.443 162.718V144.18C283.48 144.18 284.312 145.03 284.312 146.066ZM186 146.066V160.832C186 164.332 188.651 167.237 192.066 167.611V174.884C192.066 178.622 194.598 181.833 198.234 182.7C224.35 188.884 250.618 188.884 276.344 182.717C279.963 181.85 282.477 178.639 282.477 174.918V167.662C286.216 167.628 289.24 164.587 289.24 160.849V146.083C289.24 142.345 286.216 139.286 282.477 139.269V93.9533C286.216 93.9193 289.24 90.8778 289.24 87.1397V72.3742C289.24 68.636 286.216 65.5776 282.477 65.5606V45.1709C282.477 41.6876 280.252 38.6122 276.955 37.5417C263.719 33.2429 250.398 31.034 237.348 31C237.212 31 237.093 31 236.957 31C223.789 31 210.519 33.1919 197.537 37.5247C194.258 38.6122 192.066 41.6706 192.066 45.1369V65.6116C188.668 65.9854 186 68.8909 186 72.3912V87.1567C186 90.657 188.651 93.5625 192.066 93.9363V139.303C188.651 139.66 186 142.566 186 146.066Z" fill="#9EB4C1" />
    <path d="M204.538 51.7976C223.772 46.1564 244.841 46.2074 268.918 51.9675C269.292 52.0524 269.496 52.3073 269.581 52.4432C269.666 52.5792 269.802 52.868 269.7 53.2418L264.806 73.3597C264.687 73.8355 264.263 74.1583 263.77 74.1583C263.685 74.1583 263.6 74.1413 263.515 74.1243C245.011 69.6386 226.949 69.6216 209.856 74.0394C209.465 74.1413 209.176 74.0054 209.023 73.9204C208.888 73.8355 208.633 73.6316 208.548 73.2578L203.807 53.038C203.688 52.5112 203.994 51.9675 204.538 51.7976ZM203.756 74.4132C204.13 75.9934 205.098 77.3187 206.475 78.1683C207.868 79.0179 209.499 79.2557 211.096 78.848C227.408 74.6341 244.655 74.6681 262.36 78.9499C265.571 79.7315 268.816 77.7605 269.581 74.5491L274.475 54.4312C274.848 52.868 274.61 51.2708 273.761 49.8945C272.928 48.5182 271.603 47.5667 270.04 47.1929C257.5 44.2024 245.725 42.7072 234.562 42.7072C223.534 42.7072 213.101 44.1684 203.11 47.0909C200.069 47.9915 198.251 51.1009 198.982 54.1934L203.756 74.4132Z" fill="#9EB4C1" />
    <path d="M208.446 134.546C208.65 134.393 209.278 134.172 210.077 134.308C227.051 137.23 244.977 137.213 263.362 134.257C264.127 134.138 264.756 134.359 264.959 134.512L269.615 147.238C269.496 147.289 269.343 147.34 269.139 147.374C244.91 151.231 223.721 151.265 204.351 147.476C204.198 147.442 204.062 147.408 203.977 147.357L208.446 134.546ZM203.365 152.302C223.313 156.21 245.079 156.176 269.87 152.234C271.739 151.928 273.268 150.977 274.084 149.617C274.729 148.53 274.848 147.289 274.407 146.117L269.513 132.694C268.765 130.621 266.421 129.278 263.787 129.278C263.379 129.278 262.971 129.312 262.547 129.38C244.706 132.252 227.323 132.286 210.893 129.448C207.732 128.905 204.691 130.332 203.824 132.796L199.084 146.287C198.676 147.425 198.795 148.632 199.406 149.702C200.154 151.01 201.598 151.962 203.365 152.302Z" fill="#9EB4C1" />
    <path d="M266.489 118.472C266.489 120.341 264.959 121.87 263.09 121.87H209.805C207.936 121.87 206.407 120.341 206.407 118.472V91.0308C206.407 89.1617 207.936 87.6325 209.805 87.6325H263.073C264.942 87.6325 266.472 89.1617 266.472 91.0308V118.472H266.489ZM263.073 82.688H209.805C205.217 82.688 201.479 86.4261 201.479 91.0138V118.472C201.479 123.06 205.217 126.798 209.805 126.798H263.073C267.661 126.798 271.399 123.06 271.399 118.472V91.0308C271.416 86.4261 267.678 82.688 263.073 82.688Z" fill="#9EB4C1" />
    <path d="M250.992 107.92C250.992 108.498 250.517 108.974 249.939 108.974H223.891C223.313 108.974 222.837 108.498 222.837 107.92V101.345C222.837 100.767 223.313 100.291 223.891 100.291H249.939C250.517 100.291 250.992 100.767 250.992 101.345V107.92ZM249.939 95.3635H223.891C220.595 95.3635 217.91 98.0482 217.91 101.345V107.92C217.91 111.217 220.595 113.901 223.891 113.901H249.939C253.235 113.901 255.92 111.217 255.92 107.92V101.345C255.92 98.0482 253.235 95.3635 249.939 95.3635Z" fill="#9EB4C1" />
    <path d="M271.059 168.07C270.838 168.07 270.617 168.104 270.413 168.155L255.869 172.148C254.56 172.505 253.779 173.864 254.153 175.172C254.509 176.481 255.869 177.262 257.177 176.906L271.722 172.913C273.03 172.556 273.812 171.196 273.455 169.888C273.132 168.784 272.147 168.07 271.059 168.07Z" fill="#9EB4C1" />
    <path d="M217.74 172.148L203.196 168.155C202.975 168.087 202.754 168.07 202.55 168.07C201.462 168.07 200.477 168.784 200.171 169.888C199.814 171.196 200.579 172.556 201.904 172.913L216.449 176.906C217.757 177.262 219.117 176.498 219.473 175.172C219.83 173.864 219.049 172.505 217.74 172.148Z" fill="#9EB4C1" />
    <path d="M38.0999 144.316V162.565C37.4203 162.276 36.9275 161.613 36.9275 160.815V146.049C36.9275 145.267 37.4033 144.605 38.0999 144.316ZM36.9275 87.1397V72.3742C36.9275 71.5926 37.4203 70.9129 38.0999 70.624V88.8898C37.4033 88.601 36.9275 87.9213 36.9275 87.1397ZM45.0834 42.2144C70.0438 33.8885 95.7349 33.8885 121.409 42.2483C122.683 42.6561 123.533 43.8455 123.533 45.1879V68.0413C123.533 68.3812 123.601 68.704 123.737 69.0099V90.521C123.601 90.8269 123.533 91.1497 123.533 91.4895V141.274C123.516 141.41 123.499 141.529 123.499 141.665V165.13C123.499 165.266 123.516 165.402 123.533 165.521V174.867C123.533 176.311 122.564 177.551 121.171 177.874C96.2107 183.872 70.7065 183.872 45.3553 177.857C43.962 177.534 42.9765 176.294 42.9765 174.85V165.521C42.9935 165.385 43.0105 165.266 43.0105 165.13V141.682C43.0105 141.546 42.9935 141.41 42.9765 141.291V91.8633C42.9935 91.7274 43.0105 91.6085 43.0105 91.4725V67.9904C43.0105 67.8544 42.9935 67.7185 42.9765 67.5996V45.1539C42.9935 43.8115 43.826 42.6221 45.0834 42.2144ZM130.312 72.3742V87.1397C130.312 88.0912 129.599 88.8898 128.664 89.0088V70.5051C129.599 70.641 130.312 71.4226 130.312 72.3742ZM130.312 146.066V160.832C130.312 161.868 129.463 162.718 128.443 162.718V144.18C129.48 144.18 130.312 145.03 130.312 146.066ZM32 146.066V160.832C32 164.332 34.6507 167.237 38.0659 167.611V174.884C38.0659 178.622 40.5977 181.833 44.2338 182.7C70.3497 188.884 96.6185 188.884 122.344 182.717C125.963 181.85 128.477 178.639 128.477 174.918V167.662C132.216 167.628 135.24 164.587 135.24 160.849V146.083C135.24 142.345 132.216 139.286 128.477 139.269V93.9533C132.216 93.9193 135.24 90.8778 135.24 87.1397V72.3742C135.24 68.636 132.216 65.5776 128.477 65.5606V45.1709C128.477 41.6876 126.252 38.6122 122.955 37.5417C109.719 33.2429 96.3976 31.034 83.3481 31C83.2122 31 83.0933 31 82.9573 31C69.789 31 56.5187 33.1919 43.5372 37.5247C40.2578 38.6122 38.0659 41.6706 38.0659 45.1369V65.6116C34.6677 65.9854 32 68.8909 32 72.3912V87.1567C32 90.657 34.6507 93.5625 38.0659 93.9363V139.303C34.6507 139.66 32 142.566 32 146.066Z" fill="#9EB4C1" />
    <path d="M50.5377 51.7976C69.772 46.1564 90.8414 46.2074 114.918 51.9675C115.292 52.0524 115.496 52.3073 115.581 52.4432C115.666 52.5792 115.802 52.868 115.7 53.2418L110.806 73.3597C110.687 73.8355 110.263 74.1583 109.77 74.1583C109.685 74.1583 109.6 74.1413 109.515 74.1243C91.0113 69.6386 72.9495 69.6216 55.8561 74.0394C55.4653 74.1413 55.1764 74.0054 55.0235 73.9204C54.8875 73.8355 54.6327 73.6316 54.5477 73.2578L49.8071 53.038C49.6882 52.5112 49.994 51.9675 50.5377 51.7976ZM49.7561 74.4132C50.1299 75.9934 51.0985 77.3187 52.4748 78.1683C53.8681 79.0179 55.4992 79.2557 57.0964 78.848C73.4082 74.6341 90.6545 74.6681 108.36 78.9499C111.571 79.7315 114.816 77.7605 115.581 74.5491L120.475 54.4312C120.848 52.868 120.61 51.2708 119.761 49.8945C118.928 48.5182 117.603 47.5667 116.04 47.1929C103.5 44.2024 91.725 42.7072 80.5616 42.7072C69.5342 42.7072 59.1014 44.1684 49.1105 47.0909C46.069 47.9915 44.2509 51.1009 44.9815 54.1934L49.7561 74.4132Z" fill="#9EB4C1" />
    <path d="M54.4459 134.546C54.6498 134.393 55.2784 134.172 56.077 134.308C73.0515 137.23 90.9775 137.213 109.362 134.257C110.127 134.138 110.756 134.359 110.959 134.512L115.615 147.238C115.496 147.289 115.343 147.34 115.139 147.374C90.9095 151.231 69.7212 151.265 50.3509 147.476C50.198 147.442 50.0621 147.408 49.9771 147.357L54.4459 134.546ZM49.3654 152.302C69.3134 156.21 91.0794 156.176 115.87 152.234C117.739 151.928 119.268 150.977 120.084 149.617C120.729 148.53 120.848 147.289 120.407 146.117L115.513 132.694C114.765 130.621 112.421 129.278 109.787 129.278C109.379 129.278 108.971 129.312 108.547 129.38C90.7056 132.252 73.3234 132.286 56.8926 129.448C53.7322 128.905 50.6908 130.332 49.8242 132.796L45.0836 146.287C44.6758 147.425 44.7947 148.632 45.4064 149.702C46.154 151.01 47.5983 151.962 49.3654 152.302Z" fill="#9EB4C1" />
    <path d="M112.489 118.472C112.489 120.341 110.959 121.87 109.09 121.87H55.8052C53.9361 121.87 52.4069 120.341 52.4069 118.472V91.0308C52.4069 89.1617 53.9361 87.6325 55.8052 87.6325H109.073C110.942 87.6325 112.472 89.1617 112.472 91.0308V118.472H112.489ZM109.073 82.688H55.8052C51.2175 82.688 47.4794 86.4261 47.4794 91.0138V118.472C47.4794 123.06 51.2175 126.798 55.8052 126.798H109.073C113.661 126.798 117.399 123.06 117.399 118.472V91.0308C117.416 86.4261 113.678 82.688 109.073 82.688Z" fill="#9EB4C1" />
    <path d="M96.9923 107.92C96.9923 108.498 96.5166 108.974 95.9388 108.974H69.891C69.3133 108.974 68.8375 108.498 68.8375 107.92V101.345C68.8375 100.767 69.3133 100.291 69.891 100.291H95.9388C96.5166 100.291 96.9923 100.767 96.9923 101.345V107.92ZM95.9388 95.3635H69.891C66.5946 95.3635 63.91 98.0482 63.91 101.345V107.92C63.91 111.217 66.5946 113.901 69.891 113.901H95.9388C99.2352 113.901 101.92 111.217 101.92 107.92V101.345C101.92 98.0482 99.2352 95.3635 95.9388 95.3635Z" fill="#9EB4C1" />
    <path d="M117.059 168.07C116.838 168.07 116.617 168.104 116.413 168.155L101.869 172.148C100.56 172.505 99.7788 173.864 100.153 175.172C100.509 176.481 101.869 177.262 103.177 176.906L117.722 172.913C119.03 172.556 119.812 171.196 119.455 169.888C119.132 168.784 118.147 168.07 117.059 168.07Z" fill="#9EB4C1" />
    <path d="M63.7402 172.148L49.1955 168.155C48.9746 168.087 48.7537 168.07 48.5498 168.07C47.4624 168.07 46.4769 168.784 46.171 169.888C45.8142 171.196 46.5788 172.556 47.9041 172.913L62.4488 176.906C63.7572 177.262 65.1165 176.498 65.4733 175.172C65.8301 173.864 65.0485 172.505 63.7402 172.148Z" fill="#9EB4C1" />
    <path d="M225.143 176.196L225.031 175.426C225.413 175.389 225.707 175.305 225.913 175.174C226.127 175.034 226.277 174.847 226.361 174.614C226.445 174.381 226.487 174.091 226.487 173.746V168.23H229.917C230.383 168.23 230.789 168.314 231.135 168.482C231.489 168.65 231.765 168.925 231.961 169.308C232.166 169.691 232.269 170.199 232.269 170.834V176H231.191V170.792C231.191 170.157 231.051 169.714 230.771 169.462C230.5 169.21 230.136 169.084 229.679 169.084H227.565V173.634C227.565 174.185 227.481 174.642 227.313 175.006C227.145 175.361 226.883 175.636 226.529 175.832C226.174 176.019 225.712 176.14 225.143 176.196ZM234.291 173.06V171.954V169.868L234.095 168.23H235.173L235.369 169.868V171.954L235.355 172.836L234.291 173.06ZM238.108 176V170.722C238.108 170.377 238.141 170.064 238.206 169.784C238.281 169.504 238.379 169.271 238.5 169.084H237.086V168.23H240.614V169.084H239.508C239.368 169.317 239.279 169.588 239.242 169.896C239.205 170.195 239.186 170.47 239.186 170.722V176H238.108ZM247.241 176V170.988C247.241 169.719 246.737 169.084 245.729 169.084H242.271V168.23H245.967C246.461 168.23 246.881 168.333 247.227 168.538C247.581 168.734 247.852 169.042 248.039 169.462C248.225 169.873 248.319 170.395 248.319 171.03V176H247.241ZM242.271 176V168.594H243.349V176H242.271Z" fill="#1D3557" />
    <path d="M72.1427 176.196L72.0307 175.426C72.4133 175.389 72.7073 175.305 72.9127 175.174C73.1273 175.034 73.2767 174.847 73.3607 174.614C73.4447 174.381 73.4867 174.091 73.4867 173.746V168.23H76.9167C77.3833 168.23 77.7893 168.314 78.1347 168.482C78.4893 168.65 78.7647 168.925 78.9607 169.308C79.166 169.691 79.2687 170.199 79.2687 170.834V176H78.1907V170.792C78.1907 170.157 78.0507 169.714 77.7707 169.462C77.5 169.21 77.136 169.084 76.6787 169.084H74.5647V173.634C74.5647 174.185 74.4807 174.642 74.3127 175.006C74.1447 175.361 73.8833 175.636 73.5287 175.832C73.174 176.019 72.712 176.14 72.1427 176.196ZM81.2912 173.06V171.954V169.868L81.0952 168.23H82.1732L82.3692 169.868V171.954L82.3552 172.836L81.2912 173.06ZM85.1081 176V170.722C85.1081 170.377 85.1407 170.064 85.2061 169.784C85.2807 169.504 85.3787 169.271 85.5001 169.084H84.0861V168.23H87.6141V169.084H86.5081C86.3681 169.317 86.2794 169.588 86.2421 169.896C86.2047 170.195 86.1861 170.47 86.1861 170.722V176H85.1081ZM94.2407 176V170.988C94.2407 169.719 93.7367 169.084 92.7287 169.084H89.2707V168.23H92.9667C93.4613 168.23 93.8813 168.333 94.2267 168.538C94.5813 168.734 94.852 169.042 95.0387 169.462C95.2253 169.873 95.3187 170.395 95.3187 171.03V176H94.2407ZM89.2707 176V168.594H90.3487V176H89.2707Z" fill="#1D3557" />
</svg>
    