<svg width="40" height="40" viewBox="0 0 40 40" fill="none" xmlns="http://www.w3.org/2000/svg">
<path d="M22.5571 6.13123C26.4997 6.13123 29.7129 9.35253 29.7129 13.3197V16.4181" stroke="white" stroke-width="2" stroke-miterlimit="10" stroke-linecap="round" stroke-linejoin="round"/>
<path d="M14.4014 20.5656C13.9096 20.5656 13.4342 20.5082 12.9834 20.4099C13.7375 22.9672 16.049 24.7869 18.8359 24.7869H28.7375C32.1063 24.7869 34.8194 22.082 34.8194 18.7131V12.2623" stroke="white" stroke-width="2" stroke-miterlimit="10" stroke-linecap="round" stroke-linejoin="round"/>
<path d="M29.7129 19.3442V13.3279C29.7129 9.36065 26.4998 6.13934 22.5572 6.13934H7.25391V13.4508C7.25391 17.3442 10.4342 20.5656 14.4096 20.5656" stroke="white" stroke-width="2" stroke-miterlimit="10" stroke-linecap="round" stroke-linejoin="round"/>
<path d="M26.8276 7.43442V5.04098C26.8276 2.83606 28.6145 1 30.8276 1C33.0325 1 34.8276 2.83606 34.8276 5.04098V14.3115" stroke="white" stroke-width="2" stroke-miterlimit="10" stroke-linecap="round" stroke-linejoin="round"/>
<path d="M31.3604 5.40984C31.4997 5.22952 31.762 5.22952 31.9259 5.40984" stroke="white" stroke-width="2" stroke-miterlimit="10" stroke-linecap="round" stroke-linejoin="round"/>
<path d="M34.8193 4.88531L38.8931 7.34433L34.8193 9.72138" stroke="white" stroke-width="2" stroke-miterlimit="10" stroke-linecap="round" stroke-linejoin="round"/>
<path d="M7.25391 10.6475H15.2375" stroke="white" stroke-width="2" stroke-miterlimit="10" stroke-linecap="round" stroke-linejoin="round"/>
<path d="M8.12256 15.5H21.1062" stroke="white" stroke-width="2" stroke-miterlimit="10" stroke-linecap="round" stroke-linejoin="round"/>
<path d="M19.3687 20.5656H24.7539" stroke="white" stroke-width="2" stroke-miterlimit="10" stroke-linecap="round" stroke-linejoin="round"/>
<path d="M30.6062 39.0001H14.221C13.68 39.0001 13.1226 38.7952 12.7702 38.3116C12.4177 37.9017 12.262 37.3444 12.4013 36.7378L14.68 26.2624C14.8603 25.4673 15.6144 24.787 16.5079 24.787H32.8849C33.4341 24.787 33.9833 25.0739 34.3439 25.4755C34.6964 25.9673 34.8111 26.5247 34.7128 27.0575L32.4341 37.5165C32.221 38.4017 31.4587 39.0001 30.6062 39.0001Z" stroke="white" stroke-width="2" stroke-miterlimit="10" stroke-linecap="round" stroke-linejoin="round"/>
<path d="M17.2046 29.2214L22.5734 33.0328C22.7456 33.1558 22.9669 33.2132 23.1554 33.2132C23.3849 33.2132 23.5734 33.1558 23.7784 33.0328L31.0898 29.5001" stroke="white" stroke-width="2" stroke-miterlimit="10" stroke-linecap="round" stroke-linejoin="round"/>
<path d="M4.64754 6.13123H0" stroke="white" stroke-width="2" stroke-miterlimit="10" stroke-linejoin="round"/>
<path d="M4.64754 10.6475H0" stroke="white" stroke-width="2" stroke-miterlimit="10" stroke-linejoin="round"/>
<path d="M4.64754 15.1639H0" stroke="white" stroke-width="2" stroke-miterlimit="10" stroke-linejoin="round"/>
<path d="M5.42622 19.6803H0" stroke="white" stroke-width="2" stroke-miterlimit="10" stroke-linejoin="round"/>
<path d="M8.12294 24.1967H0" stroke="white" stroke-width="2" stroke-miterlimit="10" stroke-linejoin="round"/>
<path d="M4.06557 28.7131H0" stroke="white" stroke-width="2" stroke-miterlimit="10" stroke-linejoin="round"/>
<path d="M9.87724 28.7131H6.24609" stroke="white" stroke-width="2" stroke-miterlimit="10" stroke-linejoin="round"/>
</svg>
